#!OML:ASF F:\twosubjects\two\Thursday\Session 1\Rory.ASF
:FULLY-SPECIFIED
:DEGREES
384
root 12.1282 15.2459 8.80504 -137.063 -82.003 130.757
lowerback 8.93116 -1.80824 -5.00139
upperback 0.00480871 -3.12245 -2.59262
thorax -4.89059 -1.47934 0.509984
lowerneck -1.25954 -4.04579 -6.33493
upperneck 11.5908 -6.24947 7.8122
head 4.09493 -3.10234 3.16361
rclavicle -6.76924e-014 -1.76918e-014
rhumerus 47.2731 -48.0865 -22.2462
rradius 87.6918
rwrist -5.73938
rhand -40.4469 35.4315
rfingers 7.12502
rthumb -13.3985 5.8824
lclavicle -6.76924e-014 -1.76918e-014
lhumerus 41.1221 44.2879 10.0528
lradius 92.5997
lwrist 7.6601
lhand -21.2307 37.6629
lfingers 7.12502
lthumb 5.15156 67.5802
rfemur -12.1806 21.3979 -7.27542
rtibia 59.2587
rfoot -30.9867 -19.6404
rtoes -49.8063
lfemur -7.97908 -7.80164 2.05167
ltibia 52.7586
lfoot -31.6175 -3.66698
ltoes -41.2725
385
root 12.0933 15.2837 8.79572 -138.137 -81.7789 131.754
lowerback 8.61304 -1.62037 -4.98679
upperback -0.00693349 -2.84906 -2.60785
thorax -4.7368 -1.34845 0.441075
lowerneck -1.34228 -5.02934 -7.46313
upperneck 12.276 -7.65524 8.29205
head 4.48136 -3.82125 3.41297
rclavicle 1.18028e-015 2.68359e-014
rhumerus 46.4198 -47.3934 -21.6657
rradius 87.0094
rwrist -5.82445
rhand -40.563 33.7915
rfingers 7.12502
rthumb -13.5105 4.24973
lclavicle 1.18028e-015 2.68359e-014
lhumerus 40.3999 43.423 9.8936
lradius 92.211
lwrist 7.93104
lhand -21.1305 37.4179
lfingers 7.12502
lthumb 5.24839 67.3329
rfemur -11.7047 21.3398 -7.30259
rtibia 58.4539
rfoot -30.6664 -19.9765
rtoes -50.5365
lfemur -7.21765 -7.73981 1.83568
ltibia 51.9574
lfoot -31.1796 -3.81213
ltoes -40.4103
386
root 12.0494 15.3573 8.78591 -138.242 -81.6354 132.046
lowerback 8.04122 -1.43938 -4.90577
upperback -0.074207 -2.56035 -2.60896
thorax -4.50046 -1.21147 0.343159
lowerneck -1.54158 -6.13599 -8.96018
upperneck 12.9809 -9.24072 9.00246
head 4.96359 -4.62887 3.76267
rclavicle 2.50034e-014 -9.93923e-016
rhumerus 45.404 -46.9169 -20.5962
rradius 85.6963
rwrist -6.20952
rhand -39.9342 31.5278
rfingers 7.12502
rthumb -12.9044 1.94676
lclavicle 2.50034e-014 -9.93923e-016
lhumerus 39.5437 42.5145 9.7334
lradius 91.5599
lwrist 7.89887
lhand -20.8014 37.5772
lfingers 7.12502
lthumb 5.56613 67.4841
rfemur -11.2751 21.3471 -7.3843
rtibia 57.4233
rfoot -30.6451 -19.1326
rtoes -50.2811
lfemur -6.71178 -7.61575 1.57961
ltibia 51.003
lfoot -30.5503 -4.32997
ltoes -38.474
387
root 11.9997 15.4693 8.77098 -135.872 -81.4052 129.846
lowerback 7.53592 -1.57757 -5.20791
upperback -0.307847 -2.75986 -2.79946
thorax -4.44889 -1.3056 0.322634
lowerneck -1.05104 -6.85693 -9.65441
upperneck 13.299 -10.3306 9.30153
head 5.1333 -5.20211 3.90288
rclavicle -3.31722e-015 4.77083e-015
rhumerus 44.8438 -46.0414 -20.3343
rradius 83.8511
rwrist -6.02655
rhand -39.678 29.7979
rfingers 7.12502
rthumb -12.6573 0.201385
lclavicle -3.31722e-015 4.77083e-015
lhumerus 37.3039 41.4867 7.81117
lradius 90.8032
lwrist 8.05051
lhand -20.7452 39.0962
lfingers 7.12502
lthumb 5.62033 69.0017
rfemur -10.769 21.0248 -7.83599
rtibia 56.2472
rfoot -30.6895 -17.2591
rtoes -48.9838
lfemur -6.23547 -7.71873 0.848089
ltibia 49.9009
lfoot -29.7519 -3.76959
ltoes -38.0883
388
root 11.9601 15.5968 8.75491 -134.329 -81.1317 128.309
lowerback 7.32487 -1.79824 -5.62177
upperback -0.571318 -3.10237 -2.96913
thorax -4.58111 -1.46293 0.409507
lowerneck -0.322593 -7.385 -9.75055
upperneck 13.409 -11.131 9.13586
head 5.12139 -5.63733 3.83378
rclavicle 7.16867e-015 -3.69739e-014
rhumerus 44.4532 -45.0599 -20.5623
rradius 82.0935
rwrist -5.86846
rhand -39.6221 29.4453
rfingers 7.12502
rthumb -12.6034 -0.154512
lclavicle 7.16867e-015 -3.69739e-014
lhumerus 34.4917 40.5099 5.22295
lradius 89.8188
lwrist 8.33847
lhand -20.3964 40.2547
lfingers 7.12502
lthumb 5.95715 70.1509
rfemur -10.15 20.8347 -8.08185
rtibia 54.9916
rfoot -29.8793 -16.2392
rtoes -48.1328
lfemur -5.52939 -7.96705 0.0558081
ltibia 48.6758
lfoot -28.6252 -2.24229
ltoes -39.2305
389
root 11.9254 15.736 8.73947 -135.778 -81.1441 129.897
lowerback 6.99456 -1.78115 -5.56289
upperback -0.680875 -3.04508 -2.87066
thorax -4.50884 -1.43352 0.4623
lowerneck 0.00377345 -8.20268 -10.3301
upperneck 13.553 -12.3209 9.32589
head 5.27898 -6.25091 3.90244
rclavicle -5.66536e-015 3.77691e-015
rhumerus 43.3589 -44.6929 -19.8482
rradius 80.5526
rwrist -5.97664
rhand -38.6302 28.7737
rfingers 7.12502
rthumb -11.6471 -0.882547
lclavicle -5.66536e-015 3.77691e-015
lhumerus 32.5589 39.606 4.10528
lradius 88.5586
lwrist 8.19771
lhand -19.3514 39.4854
lfingers 7.12502
lthumb 6.96595 69.3508
rfemur -9.66728 21.0237 -7.66157
rtibia 53.6716
rfoot -28.5043 -15.8169
rtoes -48.0154
lfemur -4.84095 -8.25672 -0.149731
ltibia 47.3351
lfoot -27.1956 -0.941373
ltoes -40.9095
390
root 11.8811 15.9025 8.72164 -138.005 -81.5009 132.387
lowerback 6.51423 -1.75304 -5.0293
upperback -0.757335 -2.91412 -2.70223
thorax -4.33841 -1.37932 0.31107
lowerneck 0.342456 -9.08138 -11.2812
upperneck 13.5992 -13.6476 9.96763
head 5.48513 -6.92648 4.15093
rclavicle -2.48481e-014 -2.18663e-015
rhumerus 41.6208 -44.5286 -18.5584
rradius 79.0726
rwrist -6.05651
rhand -37.1896 27.7704
rfingers 7.12502
rthumb -10.2575 -1.95949
lclavicle -2.48481e-014 -2.18663e-015
lhumerus 30.7138 38.5856 3.33805
lradius 87.276
lwrist 7.9362
lhand -18.879 38.5825
lfingers 7.12502
lthumb 7.42191 68.4323
rfemur -9.15071 21.0805 -6.85819
rtibia 52.3008
rfoot -27.2058 -14.8771
rtoes -47.2327
lfemur -4.25177 -8.88222 0.0442426
ltibia 45.8551
lfoot -25.3699 -0.753965
ltoes -41.3643
391
root 11.8358 16.0961 8.70363 -139.014 -81.6624 133.605
lowerback 6.17004 -1.8055 -4.6654
upperback -0.883614 -2.93466 -2.69687
thorax -4.29157 -1.39703 0.105971
lowerneck 0.70035 -9.78062 -11.8991
upperneck 13.5822 -14.7284 10.4838
head 5.6265 -7.47428 4.32455
rclavicle 2.41772e-014 -5.56597e-015
rhumerus 40.081 -44.1838 -17.8567
rradius 77.5805
rwrist -6.01323
rhand -36.2866 28.3684
rfingers 7.12502
rthumb -9.38638 -1.40265
lclavicle 2.41772e-014 -5.56597e-015
lhumerus 27.9602 37.535 1.36344
lradius 86.2276
lwrist 8.30984
lhand -19.4906 39.1419
lfingers 7.12502
lthumb 6.83157 69.0116
rfemur -8.61444 20.95 -6.40893
rtibia 50.868
rfoot -25.7481 -13.3413
rtoes -46.1652
lfemur -3.56954 -9.68583 -0.094204
ltibia 44.2414
lfoot -23.1911 -1.11767
ltoes -40.5816
392
root 11.7975 16.3071 8.68588 -138.477 -81.5218 133.252
lowerback 5.90538 -1.8828 -4.8415
upperback -0.994694 -3.03366 -2.62461
thorax -4.24187 -1.44026 0.279425
lowerneck 0.794856 -10.4693 -12.5198
upperneck 13.6487 -15.7178 10.6563
head 5.81435 -7.97898 4.37578
rclavicle 8.48562e-015 7.7526e-015
rhumerus 38.9381 -43.8382 -17.4202
rradius 76.0847
rwrist -5.86437
rhand -36.1434 29.3882
rfingers 7.12502
rthumb -9.24819 -0.388946
lclavicle 8.48562e-015 7.7526e-015
lhumerus 24.644 36.4196 -0.645512
lradius 85.4014
lwrist 8.84152
lhand -20.0108 40.3815
lfingers 7.12502
lthumb 6.32942 70.267
rfemur -8.15479 21.0312 -6.42064
rtibia 49.3731
rfoot -24.1339 -11.1694
rtoes -44.391
lfemur -2.83285 -10.5557 -0.667287
ltibia 42.5065
lfoot -20.8439 -1.33748
ltoes -39.6048
393
root 11.7586 16.5339 8.67172 -138.137 -81.5504 133.161
lowerback 5.51536 -1.9759 -4.90626
upperback -1.06726 -3.12557 -2.43845
thorax -4.07931 -1.48278 0.501351
lowerneck 1.03794 -11.1628 -13.2858
upperneck 13.5612 -16.7205 10.8946
head 5.95723 -8.49661 4.47039
rclavicle -5.81445e-015 1.88845e-014
rhumerus 37.3222 -43.6414 -16.4914
rradius 74.7203
rwrist -5.83197
rhand -36.1555 29.1189
rfingers 7.12502
rthumb -9.25986 -0.657758
lclavicle -5.81445e-015 1.88845e-014
lhumerus 21.5988 35.2733 -1.83112
lradius 84.4885
lwrist 9.04759
lhand -19.9955 41.1651
lfingers 7.12502
lthumb 6.34418 71.0501
rfemur -7.64642 21.0135 -6.25599
rtibia 47.7941
rfoot -21.8406 -9.68252
rtoes -43.3572
lfemur -2.1959 -11.5514 -1.06366
ltibia 40.718
lfoot -18.2907 -1.39026
ltoes -38.4139
394
root 11.7167 16.7715 8.66054 -139.147 -81.7014 134.411
lowerback 5.06643 -2.04714 -4.67172
upperback -1.07119 -3.16218 -2.28124
thorax -3.83061 -1.50805 0.517724
lowerneck 1.40243 -11.7779 -13.7796
upperneck 13.3206 -17.6458 11.2483
head 6.01656 -8.96497 4.57474
rclavicle 2.50034e-014 1.6201e-014
rhumerus 35.3799 -43.5901 -15.5059
rradius 73.4873
rwrist -5.60681
rhand -36.1676 27.8989
rfingers 7.12502
rthumb -9.27151 -1.87728
lclavicle 2.50034e-014 1.6201e-014
lhumerus 18.8374 34.2061 -2.92975
lradius 83.2999
lwrist 9.17042
lhand -19.5943 41.2131
lfingers 7.12502
lthumb 6.73146 71.0861
rfemur -7.0548 21.1602 -5.75285
rtibia 46.1107
rfoot -19.2482 -8.86223
rtoes -42.5656
lfemur -1.60468 -12.4206 -1.20632
ltibia 38.9541
lfoot -15.2424 -1.52948
ltoes -36.6883
395
root 11.6781 17.0143 8.65323 -139.07 -81.5688 134.633
lowerback 4.64968 -2.07293 -4.75586
upperback -1.12144 -3.1702 -2.17815
thorax -3.6368 -1.51199 0.654564
lowerneck 1.55484 -12.3802 -14.1539
upperneck 13.2229 -18.5117 11.3868
head 6.12484 -9.39841 4.57977
rclavicle -1.49896e-014 2.00276e-014
rhumerus 33.4754 -43.4736 -14.5643
rradius 72.322
rwrist -5.59297
rhand -36.4598 26.7697
rfingers 7.12502
rthumb -9.55342 -2.99368
lclavicle -1.49896e-014 2.00276e-014
lhumerus 16.0202 33.1058 -3.96869
lradius 82.04
lwrist 9.44309
lhand -18.7306 40.8479
lfingers 7.12502
lthumb 7.5652 70.6926
rfemur -6.60007 21.5961 -5.60723
rtibia 44.3208
rfoot -16.7289 -8.07975
rtoes -40.7432
lfemur -1.15697 -13.2773 -1.71813
ltibia 37.2505
lfoot -11.7603 -1.47364
ltoes -34.5061
